<?xml version="1.0" encoding="iso-8859-1"?>
<!-- Generator: Adobe Illustrator 18.0.0, SVG Export Plug-In . SVG Version: 6.00 Build 0)  -->
<!DOCTYPE svg PUBLIC "-//W3C//DTD SVG 1.1//EN" "http://www.w3.org/Graphics/SVG/1.1/DTD/svg11.dtd">
<svg version="1.1" id="Capa_1" fill="#c1f0d0" xmlns="http://www.w3.org/2000/svg" xmlns:xlink="http://www.w3.org/1999/xlink" x="0px" y="0px"
	 viewBox="0 0 489.923 489.923" style="enable-background:new 0 0 489.923 489.923;" xml:space="preserve">
<g>
	<path d="M425.993,205.427h-50.164c-5.756,0-10.422,4.666-10.422,10.422c0,9.979-8.118,18.096-18.096,18.096
		c-9.978,0-18.097-8.118-18.097-18.096c0-5.756-4.666-10.422-10.422-10.422h-49.456c-10.47,0-18.987,8.517-18.987,18.986v33.831
		c0,10.469,8.518,18.987,18.987,18.987h7.482v70.084c0,10.207,8.305,18.512,18.512,18.513H399.29
		c10.208,0,18.513-8.305,18.513-18.513V277.23h8.19c10.47,0,18.987-8.518,18.987-18.987v-33.831
		C444.98,213.944,436.463,205.427,425.993,205.427z M424.137,256.386h-16.756c-5.756,0-10.422,4.667-10.422,10.422v78.175h-99.296
		v-78.175c0-5.755-4.666-10.422-10.422-10.422h-16.048V226.27h38.594c4.567,16.428,19.661,28.519,37.524,28.519
		c17.863,0,32.956-12.09,37.523-28.519h39.302V256.386z"/>
	<path d="M63.637,139.424c15.599,0,28.288-12.69,28.288-28.288c0-15.598-12.689-28.288-28.288-28.288
		c-15.598,0-28.288,12.69-28.288,28.288C35.349,126.734,48.039,139.424,63.637,139.424z M63.637,103.691
		c4.106,0,7.444,3.339,7.444,7.444c0,4.105-3.339,7.444-7.444,7.444c-4.104,0-7.444-3.339-7.444-7.444
		C56.192,107.031,59.532,103.692,63.637,103.691z"/>
	<path d="M131.625,139.424c15.598,0,28.288-12.69,28.288-28.288c0-15.598-12.69-28.288-28.288-28.288
		c-15.598,0-28.288,12.69-28.288,28.288C103.337,126.734,116.027,139.424,131.625,139.424z M131.625,103.691
		c4.105,0,7.444,3.339,7.444,7.444c0,4.105-3.34,7.444-7.444,7.444c-4.105,0-7.444-3.339-7.444-7.444
		C124.181,107.031,127.52,103.691,131.625,103.691z"/>
	<path d="M459.955,49.107H29.969C13.443,49.107,0,62.55,0,79.074v331.774c0,16.524,13.443,29.968,29.969,29.968h429.986
		c16.524,0,29.968-13.444,29.968-29.968V79.074C489.923,62.55,476.479,49.107,459.955,49.107z M29.969,69.951h429.986
		c5.03,0,9.124,4.093,9.124,9.123v69.941H20.844V79.074C20.844,74.044,24.938,69.951,29.969,69.951z M459.955,419.973H29.969
		c-5.031,0-9.125-4.093-9.125-9.124V169.86l448.235,0v240.989C469.079,415.88,464.985,419.973,459.955,419.973z"/>
	<path d="M177.081,231.839H54.984c-5.756,0-10.422,4.666-10.422,10.422c0,5.756,4.666,10.422,10.422,10.422h122.097
		c5.756,0,10.422-4.666,10.422-10.422C187.503,236.505,182.837,231.839,177.081,231.839z"/>
	<path d="M177.081,283.953H54.984c-5.756,0-10.422,4.666-10.422,10.422c0,5.755,4.666,10.422,10.422,10.422l122.097-0.001
		c5.756,0,10.422-4.666,10.422-10.422C187.503,288.619,182.837,283.953,177.081,283.953z"/>
</g>
<g>
</g>
<g>
</g>
<g>
</g>
<g>
</g>
<g>
</g>
<g>
</g>
<g>
</g>
<g>
</g>
<g>
</g>
<g>
</g>
<g>
</g>
<g>
</g>
<g>
</g>
<g>
</g>
<g>
</g>
</svg>
